<svg data-v-423bf9ae="" xmlns="http://www.w3.org/2000/svg" viewBox="0 0 679 99" class="iconLeft"><!----><!----><!----><g data-v-423bf9ae="" id="88d4ee0a-cfcc-416f-83a2-0360c7a527e9" fill="#6798dc" transform="matrix(6.19195073253312,0,0,6.19195073253312,104.5121225703827,-6.483869542476512)"><path d="M0.21 6.76L0.74 6.76C1.22 5.36 1.40 4.77 2.69 4.77L3.25 4.77L3.25 12.49C3.25 12.99 3.15 13.20 2.70 13.23L1.90 13.29L1.90 13.82L6.83 13.82L6.83 13.29L6.03 13.23C5.59 13.20 5.49 12.99 5.49 12.49L5.49 4.77L6.05 4.77C7.34 4.77 7.52 5.36 7.99 6.76L8.53 6.76L8.53 4.13L0.21 4.13ZM12.54 8.72L12.54 5.32C12.54 4.94 12.67 4.77 13.44 4.77C14.39 4.77 15.11 5.29 15.11 6.72C15.11 7.88 14.66 8.72 13.24 8.72ZM9.20 13.82L13.65 13.82L13.65 13.29C12.66 13.24 12.54 13.17 12.54 12.46L12.54 9.37L13.19 9.37C13.89 9.37 14.28 9.70 14.45 10.46C14.56 10.95 14.67 11.70 14.90 12.42C15.23 13.45 15.83 13.82 17.30 13.82L18.34 13.82L18.34 13.29C18.09 13.27 17.85 13.15 17.68 12.98C17.33 12.63 17.12 12.11 17.00 11.38C16.80 10.26 16.53 9.34 15.09 8.97L15.09 8.95C16.48 8.76 17.46 7.85 17.46 6.64C17.46 5.92 17.26 5.32 16.76 4.86C16.23 4.40 15.43 4.13 14.06 4.13L9.20 4.13L9.20 4.66C10.19 4.70 10.30 4.77 10.30 5.49L10.30 12.46C10.30 13.17 10.19 13.24 9.20 13.29ZM21 9.70L22.13 6.08L22.18 6.08L23.27 9.70ZM17.92 13.82L21.20 13.82L21.20 13.29L20.36 13.22C20.05 13.19 20.03 13.02 20.10 12.71C20.27 11.96 20.52 11.20 20.78 10.37L23.49 10.37L24.22 12.70C24.32 12.99 24.28 13.17 23.98 13.20L23.17 13.29L23.17 13.82L27.59 13.82L27.59 13.29C26.87 13.27 26.68 13.19 26.50 12.61L23.74 4.13L21.98 4.13L20.36 8.85C19.85 10.29 19.39 11.70 19.05 12.56C18.83 13.15 18.68 13.24 17.92 13.29ZM27.10 4.66C27.82 4.69 27.97 4.77 28.17 5.38L31.00 13.82L32.76 13.82L34.43 8.93C34.94 7.39 35.43 6.03 35.64 5.49C35.92 4.82 36.05 4.72 36.83 4.66L36.83 4.13L33.59 4.13L33.59 4.66L34.37 4.73C34.65 4.76 34.68 4.90 34.61 5.19C34.50 5.66 34.19 6.82 33.77 8.12C33.49 8.97 32.86 11.02 32.61 11.73L32.54 11.73L30.44 5.24C30.35 4.94 30.35 4.76 30.67 4.73L31.35 4.66L31.35 4.13L27.10 4.13ZM36.82 13.82L44.65 13.82L44.81 10.91L44.28 10.91C43.78 12.40 43.54 13.17 41.89 13.17C40.60 13.17 40.17 13.05 40.17 12.15L40.17 9.10L41.50 9.10C42.38 9.10 42.56 9.34 42.78 10.36L43.32 10.36L43.32 7.11L42.78 7.11C42.56 8.13 42.38 8.37 41.50 8.37L40.17 8.37L40.17 5.28C40.17 4.87 40.26 4.77 40.66 4.77L41.71 4.77C43.15 4.77 43.40 5.33 43.83 6.72L44.37 6.72L44.37 4.13L36.82 4.13L36.82 4.66C37.81 4.70 37.93 4.77 37.93 5.49L37.93 12.46C37.93 13.17 37.81 13.24 36.82 13.29ZM45.63 13.82L53.17 13.82L53.34 11.00L52.81 11.00C52.30 12.40 52.12 13.17 50.53 13.17C49.35 13.17 48.97 13.05 48.97 12.15L48.97 5.49C48.97 4.77 49.08 4.70 50.25 4.66L50.25 4.13L45.63 4.13L45.63 4.66C46.62 4.70 46.73 4.77 46.73 5.49L46.73 12.46C46.73 13.17 46.62 13.24 45.63 13.29ZM60.10 8.72L60.10 5.29C60.10 4.90 60.21 4.77 60.93 4.77C61.87 4.77 62.66 5.40 62.66 7.01C62.66 8.08 62.30 9.32 60.89 9.32C60.34 9.32 60.10 9.25 60.10 8.72ZM56.76 13.82L61.45 13.82L61.45 13.31C60.21 13.24 60.10 13.17 60.10 12.46L60.10 9.97L60.94 9.97C62.26 9.97 63.29 9.73 63.94 9.27C64.64 8.76 65.02 8.01 65.02 6.97C65.02 5.85 64.51 5.08 63.83 4.66C63.14 4.24 62.23 4.13 61.10 4.13L56.76 4.13L56.76 4.66C57.75 4.70 57.86 4.77 57.86 5.49L57.86 12.46C57.86 13.17 57.75 13.24 56.76 13.29ZM65.86 13.82L73.40 13.82L73.57 11.00L73.04 11.00C72.53 12.40 72.35 13.17 70.76 13.17C69.58 13.17 69.20 13.05 69.20 12.15L69.20 5.49C69.20 4.77 69.31 4.70 70.48 4.66L70.48 4.13L65.86 4.13L65.86 4.66C66.85 4.70 66.96 4.77 66.96 5.49L66.96 12.46C66.96 13.17 66.85 13.24 65.86 13.29ZM76.27 9.70L77.41 6.08L77.45 6.08L78.54 9.70ZM73.19 13.82L76.47 13.82L76.47 13.29L75.63 13.22C75.32 13.19 75.31 13.02 75.38 12.71C75.54 11.96 75.80 11.20 76.05 10.37L78.76 10.37L79.49 12.70C79.59 12.99 79.55 13.17 79.25 13.20L78.44 13.29L78.44 13.82L82.87 13.82L82.87 13.29C82.14 13.27 81.96 13.19 81.77 12.61L79.02 4.13L77.25 4.13L75.63 8.85C75.12 10.29 74.66 11.70 74.33 12.56C74.10 13.15 73.95 13.24 73.19 13.29ZM82.99 13.82L86.37 13.82L86.37 13.29L85.58 13.22C85.19 13.19 85.04 12.96 84.99 12.47C84.94 11.97 84.92 11.44 84.92 10.29L84.92 6.01L84.98 6.01C86.70 8.61 88.40 11.21 90.06 13.82L91.60 13.82L91.60 7.66C91.60 6.51 91.62 5.96 91.67 5.47C91.71 4.98 91.85 4.77 92.18 4.73L92.67 4.66L92.67 4.13L89.29 4.13L89.29 4.66L90.08 4.73C90.47 4.76 90.62 4.98 90.66 5.47C90.72 5.98 90.73 6.51 90.73 7.66L90.73 10.79L90.68 10.79C89.19 8.57 87.71 6.36 86.27 4.13L82.95 4.13L82.95 4.66C83.94 4.70 84.06 4.77 84.06 5.49L84.06 10.29C84.06 11.44 84.04 11.98 83.99 12.47C83.94 12.96 83.80 13.17 83.48 13.22L82.99 13.29Z"></path></g><!----><g data-v-423bf9ae="" id="8b55308b-20c7-4022-aa04-a0f601e67f1e" transform="matrix(1.0444444444444445,0,0,1.0444444444444445,-6.1879510455661375,-3.266666666666673)" stroke="none" fill="#34A1E5"><style>.st0{fill:#231f20}</style><path class="st0" d="M88.5 78.7v2.6c0 .5-.4.9-.9.9H63.3c-.5 0-.9-.4-.9-.9v-2.6c0-.5.4-.9.9-.9h24.3c.5 0 .9.4.9.9zM74.9 86.4V89c0 .5-.4.9-.9.9H49.6c-.5 0-.9-.4-.9-.9v-2.6c0-.5.4-.9.9-.9h24.3c.5 0 1 .4 1 .9zM65.1 12.5v1.2c0 .5-.4.9-.9.9h-3.7c.9 1.2 1.4 2.8 1.4 4.4 0 3.4-2.2 6.3-5.3 7.3-.7.2-1.5.3-2.3.3-1.6 0-3.1-.5-4.3-1.3-2-1.4-3.3-3.7-3.3-6.3 0-1.6.5-3.2 1.4-4.4h-3.5c-.5 0-.9-.4-.9-.9v-1.2c0-.5.4-.9.9-.9h19.7c.4 0 .8.4.8.9zM61.2 94.5v2.6c0 .5-.4.9-.9.9H36c-.5 0-.9-.4-.9-.9v-2.6c0-.5.4-.9.9-.9h24.3c.5 0 .9.4.9.9zM61 4.9v4.7c0 .5-.4.9-.9.9H48.6c-.5 0-.9-.4-.9-.9V4.9c0-.5.4-.9.9-.9H60c.5 0 1 .4 1 .9zM52.3 64.7L49.8 76c0 .1-.1.3-.2.4v.1l-.1.1-8.6 11c-.4.5-1.2.6-1.8.2L35 84.3c-.5-.4-.6-1.2-.2-1.8l5.6-7.2 3-14"></path><path class="st0" d="M44.2 28c.2-.1.4-.1.6-.1h.2l3.6.5.3.3 4.5 4.9c.4.3 1 .1 1.2-.3l1.1-3.8 4 .6c.1 0 .2 0 .3.1h.1c.1.1.3.1.4.2l9.9 9.9.1.1h7.1c.7 0 1.3.6 1.3 1.3v3.4c0 .7-.6 1.3-1.3 1.3h-12c-.4 0-.8-.2-1-.5l-5.3-5.3-3.1 12L69.7 57h.1c.1 0 .1 0 .2.1.1 0 .1.1.2.1l.1.1.1.1.2.3s0 .1.1.1l.1.4v14.2c0 .7-.6 1.3-1.3 1.3H64c-.7 0-1.3-.6-1.3-1.3v-7.6l-22-7.9-.4-.1c-.4-.3-.7-.8-.6-1.3v-.2L42.4 38l-8.7 4-3.2 9.4c-.2.7-.9 1-1.6.8l-3.7-1.3c-.7-.2-1-.9-.8-1.6L29 35.9c.1-.4.4-.7.8-.8.1-.1.2-.1.3-.2L44.2 28zM37.3 62.1c.7.2 1 1 .8 1.6l-4.8 13.2c-.2.7-1 1-1.6.8l-24.5-9c-.7-.2-1-1-.8-1.6l4.8-13.2c.2-.7 1-1 1.6-.8l24.5 9zM28.3 53.7l2.9 1.1c.2.1.4.3.3.6l-.8 2.2c-.1.2-.4.4-.6.3l-9.3-3.4c-.2-.1-.4-.3-.3-.6l.8-2.2c.1-.2.3-.4.6-.3l2.6 1 3.8 1.3z"></path></g><!----></svg>